PathFileType	4	(X/Y/Z)	/home/abdul/Desktop/myosuite/custom_workspace/IK/output/01_12_1.trc
DataRate	CameraRate	NumFrames	NumMarkers	Units	OrigDataRate	OrigDataStartFrame	OrigNumFrames
200.0	200.0	34	3	mm	200.0	1301	1486
Frame#	Time	V_Shoulder			V_Elbow			V_Wrist		
		X1	Y1	Z1	X2	Y2	Z2	X3	Y3	Z3

1301	6.5	28.127452051368987	832.8915532865904	302.5693494522789	-53.517831027249954	742.8445011686899	-2.661838776523523	5.573576032716627	513.718689446587	28.738464035961407
1302	6.505	28.073698953757766	832.9403865897046	302.5245816275447	-53.28859356636727	742.9053544075789	-2.7912892053765557	5.636651940041803	513.7278887174292	28.57555383333034
1303	6.51	28.019983428648647	832.9849130732756	302.480265179131	-53.059564832267434	742.9581476046809	-2.919699314510086	5.698890881532439	513.7291331691473	28.419551284655242
1304	6.515	27.96636547568693	833.0253769871256	302.43633160320525	-52.83082184683181	743.0034797443793	-3.0471739147868666	5.760409959086612	513.7231208396327	28.27031154445382
1305	6.52	27.912904353996932	833.0620237125262	302.3927125717552	-52.60244468184412	743.0419357396443	-3.1738085864450065	5.821318632870669	513.7105322456704	28.127681618802995
1306	6.525	27.85965843125417	833.0950992251413	302.3493401994026	-52.37451630848889	743.074085685628	-3.299689842141121	5.881718593475636	513.6920295003067	27.991501017982692
1307	6.53	27.806685035634235	833.1248495479434	302.30614730563536	-52.14712242522084	743.1004841546956	-3.424895310543297	5.941703660922881	513.6682554812614	27.861602422420813
1308	6.535	27.754040311180272	833.1515201962305	302.26306767182524	-51.92035126521061	743.1216695351538	-3.5494939393026677	6.00135971102989	513.6398330527902	27.737812357798212
1309	6.54	27.701779077117976	833.175355616933	302.2200362924102	-51.69429338469613	743.1381634158176	-3.6735462162103403	6.060764629594894	513.607364343306	27.61995187520875
1310	6.545	27.649954691631418	833.1965986244512	302.17698961962395	-51.46904143367942	743.1504700184025	-3.797104407330555	6.119988294790897	513.5714300809425	27.50783723236078
1311	6.55	27.5986189205933	833.2154898353037	302.13386580116213	-51.24468991050029	743.1590756795648	-3.9202128108914263	6.179092588074074	513.5325889891064	27.401280571948888
1312	6.555	27.54782181171882	833.2322671038992	302.0906049101788	-51.021334901888736	743.1644483842151	-4.04290802571105	6.238131433807819	513.4913772438899	27.30009059351474
1313	6.56	27.49761157458271	833.2471649617745	302.0471491670105	-50.79907381014387	743.167037351524	-4.16521923293774	6.2971508676812	513.4483079950288	27.20407321534807
1314	6.565	27.44803446690493	833.2604140626532	302.00344315203284	-50.57800506910734	743.1672726748201	-4.287168489888091	6.356189133859576	513.4038709518743	27.11303222324632
1315	6.57	27.399134687474316	833.272240635686	301.95943400905804	-50.35822785059216	743.1655650163428	-4.408771034776929	6.415276810645548	513.3585320356133	27.026769903246695
1316	6.575	27.350954276042547	833.2828659492276	301.9150716386918	-50.139841762896175	743.1623053575784	-4.530035601150871	6.474436964252449	513.3127330987113	26.945087655759167
1317	6.58	27.303533020485503	833.2925057874867	301.8703088810676	-49.92294654298095	743.1578648056606	-4.650964740862435	6.53368533010266	513.266891712286	26.867786588854294
1318	6.585	27.25690837149539	833.3013699423424	301.8251016873872	-49.707641743842494	743.1525944560694	-4.771555154451281	6.593030520863534	513.2214010218224	26.794668088787475
1319	6.59	27.21111536503472	833.3096617225789	301.77940927969615	-49.49402641854938	743.1468253116104	-4.891798027829777	6.652474260230621	513.1766296713427	26.725534366162968
1320	6.595	27.16618655275057	833.3175774827187	301.7331942983291	-49.28219880238077	743.1408682574133	-5.011679374198545	6.71201164126667	513.1329217958266	26.66018897644865
1321	6.6	27.12215194051214	833.3253061735564	301.6864229364716	-49.07225599446112	743.1350140914433	-5.131180380142851	6.7716314079120075	513.0905970813546	26.598437313839206
1322	6.605	27.07903893519624	833.3330289164049	301.639065061296	-48.86429364026086	743.1295336097719	-5.2502777548818775	6.831316258102719	513.0499508921166	26.54008707772513
1323	6.61	27.03687229980406	833.3409186029639	301.5910943211534	-48.658405616310354	743.1246777456188	-5.368944081660393	6.891043166772567	513.0112544631005	26.484948711254013
1324	6.615	26.995674116950255	833.3491395226052	301.5424882383274	-48.454683718459584	743.1206777609306	-5.487148170286519	6.9507837268765424	512.9747551569473	26.432835811667253
1325	6.62	26.95546376072481	833.3578470187504	301.4932282868938	-48.25321735500538	743.1177454890392	-5.604855409831186	7.010504506461345	512.9406767831483	26.38356551226106
1326	6.625	26.91625787688942	833.3671871758779	301.44329995526385	-48.05409324600172	743.116073626706	-5.722028120515662	7.070167419721981	512.9092199774568	26.336958835958225
1327	6.63	26.87807037133525	833.3772965385655	301.392692793039	-47.85739513006228	743.1158360736418	-5.838625903824012	7.129730109923683	512.880562639107	26.292841020590824
1328	6.635	26.840912406697143	833.3883018638102	301.3414004418543	-47.663203479956714	743.1171883173813	-5.954605989888534	7.189146342033739	512.8548604231655	26.251041816089373
1329	6.64	26.804792406990277	833.4003199077209	301.2894206499456	-47.471595228289345	743.1202678611946	-6.069923581208238	7.248366402896705	512.8322472851062	26.21139575385508
1330	6.645	26.76971607010947	833.4134572474977	301.2367552702382	-47.28264350453024	743.1251946925358	-6.184532191773648	7.307337506797035	512.8128360744744	26.173742388663683
1331	6.65	26.73568638800799	833.4278101394499	301.18341024182473	-47.09641738464358	743.1320717893659	-6.298383980685541	7.366004204282703	512.796719174322	26.13792651351538
1332	6.655	26.702703674351444	833.4434644136218	301.1293955547722	-46.91298165452567	743.1409856615404	-6.41143007937104	7.424308792168532	512.7839691829234	26.10379834790866
1333	6.66	26.670765599423074	833.4604954054106	301.07472519827456	-46.73239658842647	743.1520069243348	-6.523620911518199	7.482191722694557	512.774639634152	26.071213700078083
1334	6.665	26.639867232038274	833.4789679243831	301.01941709224576	-46.5547177434817	743.1651909010786	-6.634906504870461	7.539592009879723	512.7687657527857	26.040034103797254
